<?xml version="1.0" encoding="iso-8859-1"?>
<!-- Generator: Adobe Illustrator 18.0.0, SVG Export Plug-In . SVG Version: 6.00 Build 0)  -->
<!DOCTYPE svg PUBLIC "-//W3C//DTD SVG 1.1//EN" "http://www.w3.org/Graphics/SVG/1.1/DTD/svg11.dtd">
<svg version="1.1" xmlns="http://www.w3.org/2000/svg" xmlns:xlink="http://www.w3.org/1999/xlink" x="0px" y="0px"
	 viewBox="0 0 964.997 350" style="enable-background:new 0 0 964.997 350;" xml:space="preserve">
<g id="sprite_x5F_swipe-right">
	<g id="graphics_40_">
		<g>
			<g>
				<polygon style="fill:#FFFFFF;" points="860.182,169.849 878.892,189.849 860.182,209.849 873.892,209.849 892.603,189.849 
					873.892,169.849 				"/>
				<polygon style="opacity:0.4;fill:#FFFFFF;" points="894.653,169.849 913.363,189.849 894.653,209.849 908.363,209.849 
					927.074,189.849 908.363,169.849 				"/>
				<polygon style="opacity:0.1;fill:#FFFFFF;" points="929.124,169.849 947.834,189.849 929.124,209.849 942.834,209.849 
					961.545,189.849 942.834,169.849 				"/>
			</g>
			<path style="fill:#FFFFFF;" d="M688.449,315.285c0,0,19-30,22.5-56s6-86,8.5-96s22.5-83,30-94.5s23.5-43.5,25.5-53.5
				s5.5-12,10-11.5c4.5,0.5,14,5,7.5,30s-10,38-12.5,41.5s7,9-3.5,44.5c0,0,7-1.5,13,3s10.911,21.5,5.206,50s1.264,34.5,2.529,45
				c1.265,10.5,14.265,62-5.235,83.5c-8.335,8.692-24.5,19-36.5,45L688.449,315.285z"/>
		</g>
	</g>
	<rect id="area_3_" x="684.997" style="opacity:0;fill:#CCCCCC;" width="280" height="350"/>
</g>
<g id="sprite_x5F_swipe-left">
	<g id="graphics">
		<g>
			<g>
				<polygon style="fill:#FFFFFF;" points="485.631,209.849 466.921,189.849 485.631,169.849 471.921,169.849 453.21,189.849 
					471.921,209.849 				"/>
				<polygon style="opacity:0.4;fill:#FFFFFF;" points="451.16,209.849 432.45,189.849 451.16,169.849 437.45,169.849 
					418.739,189.849 437.45,209.849 				"/>
				<polygon style="opacity:0.1;fill:#FFFFFF;" points="416.689,209.849 397.979,189.849 416.689,169.849 402.979,169.849 
					384.268,189.849 402.979,209.849 				"/>
			</g>
			<path style="fill:#FFFFFF;" d="M657.726,315.285c0,0-19-30-22.5-56s-6-86-8.5-96s-22.5-83-30-94.5s-23.5-43.5-25.5-53.5
				s-5.5-12-10-11.5s-14,5-7.5,30s10,38,12.5,41.5s-7,9,3.5,44.5c0,0-7-1.5-13,3s-10.911,21.5-5.206,50s-1.264,34.5-2.529,45
				s-14.265,62,5.235,83.5c8.335,8.692,24.5,19,36.5,45L657.726,315.285z"/>
		</g>
	</g>
	<rect id="area_2_" x="380.997" style="opacity:0;fill:#CCCCCC;" width="280" height="350"/>
</g>
<g id="sprite_x5F_pin-red">
	<g id="graphics_1_">
		<g>
			<path style="fill:#8E2D1F;" d="M339.998,2c-8.755,0-15.877,7.123-15.877,15.877c0,3.526,2.252,9.275,6.883,17.575
				c3.276,5.87,6.498,10.765,6.634,10.971l2.36,3.578l2.36-3.577c0.135-0.206,3.358-5.1,6.634-10.971
				c4.632-8.3,6.883-14.049,6.883-17.575C355.875,9.123,348.752,2,339.998,2z M339.998,26c-4.545,0-8.23-3.685-8.23-8.23
				s3.685-8.23,8.23-8.23s8.23,3.685,8.23,8.23S344.543,26,339.998,26z"/>
		</g>
	</g>
	<rect id="area_9_" x="322.998" style="opacity:0;fill:#CCCCCC;" width="33.999" height="52"/>
</g>
<g id="sprite_x5F_pin-gold">
	<g id="graphics_2_">
		<g>
			<g>
				<path style="fill:#B1A14B;" d="M281.999,2c-8.755,0-15.877,7.123-15.877,15.877c0,3.526,2.252,9.275,6.883,17.575
					c3.276,5.87,6.498,10.765,6.634,10.971l2.36,3.578l2.36-3.577c0.135-0.206,3.358-5.1,6.634-10.971
					c4.632-8.3,6.883-14.049,6.883-17.575C297.876,9.123,290.753,2,281.999,2z M281.999,26c-4.545,0-8.23-3.685-8.23-8.23
					s3.685-8.23,8.23-8.23s8.23,3.685,8.23,8.23S286.544,26,281.999,26z"/>
			</g>
		</g>
	</g>
	<rect id="area_4_" x="264.999" style="opacity:0;fill:#CCCCCC;" width="33.999" height="52"/>
</g>
<g id="sprite_x5F_pin-green">
	<g id="graphics_3_">
		<g>
			<path style="fill:#98A396;" d="M224,2c-8.755,0-15.877,7.123-15.877,15.877c0,3.526,2.252,9.275,6.883,17.575
				c3.276,5.87,6.498,10.765,6.634,10.971L224,50l2.36-3.577c0.135-0.206,3.358-5.1,6.634-10.971
				c4.632-8.3,6.883-14.049,6.883-17.575C239.877,9.123,232.754,2,224,2z M224,26c-4.545,0-8.23-3.685-8.23-8.23
				s3.685-8.23,8.23-8.23s8.23,3.685,8.23,8.23S228.545,26,224,26z"/>
		</g>
	</g>
	<rect id="area_5_" x="207" style="opacity:0;fill:#CCCCCC;" width="33.999" height="52"/>
</g>
<g id="sprite_x5F_church-red">
	<g id="graphics_4_">
		<path style="fill:#8E2D1F;" d="M181.418,31.209l-18.74-16.719V9.557h3.064V5.268h-3.064V2h-4.289v3.268h-3.268v4.289h3.268v4.749
			l-18.808,16.902h4.918V50h10.826v-7.86c0-2.739,2.243-4.804,5.128-4.804h0.093c2.884,0,4.992,2.065,4.992,4.804V50h10.621V31.209
			H181.418z"/>
	</g>
	<rect id="area_7_" x="138" style="opacity:0;fill:#CCCCCC;" width="45" height="52"/>
</g>
<g id="sprite_x5F_church-gold">
	<g id="graphics_6_">
		<path style="fill:#B1A14B;" d="M112.418,31.209L93.679,14.49V9.557h3.064V5.268h-3.064V2h-4.289v3.268h-3.268v4.289h3.268v4.749
			L70.582,31.209H75.5V50h10.826v-7.86c0-2.739,2.243-4.804,5.128-4.804h0.093c2.884,0,4.992,2.065,4.992,4.804V50h10.621V31.209
			H112.418z"/>
	</g>
	<rect id="area_11_" x="69" style="opacity:0;fill:#CCCCCC;" width="45" height="52"/>
</g>
<g id="sprite_x5F_church-green">
	<g id="graphics_7_">
		<path style="fill:#98A396;" d="M43.418,31.209L24.679,14.49V9.557h3.064V5.268h-3.064V2h-4.289v3.268h-3.268v4.289h3.268v4.749
			L1.582,31.209H6.5V50h10.826v-7.86c0-2.739,2.243-4.804,5.128-4.804h0.093c2.884,0,4.992,2.065,4.992,4.804V50h10.621V31.209
			H43.418z"/>
	</g>
	<rect id="area_10_" style="opacity:0;fill:#CCCCCC;" width="45" height="52"/>
</g>
</svg>
